<svg xmlns="http://www.w3.org/2000/svg" viewBox="0 0 800 450" preserveAspectRatio="xMidYMid slice" role="img" aria-label="Running Log: weekly load chart, pace histogram, and AI coach stats">
<defs>
  <linearGradient id="bg" x1="0" y1="0" x2="1" y2="1">
    <stop offset="0%" stop-color="#F8FAFC"/>
    <stop offset="100%" stop-color="#DCE8FB"/>
  </linearGradient>
  <radialGradient id="glow" cx="62%" cy="40%" r="55%">
    <stop offset="0%" stop-color="#60A5FA" stop-opacity="0.16"/>
    <stop offset="100%" stop-color="#60A5FA" stop-opacity="0"/>
  </radialGradient>
  <linearGradient id="areaFill" x1="0" y1="0" x2="0" y2="1">
    <stop offset="0%" stop-color="#3B82F6" stop-opacity="0.35"/>
    <stop offset="100%" stop-color="#3B82F6" stop-opacity="0"/>
  </linearGradient>
</defs>

<rect width="800" height="450" fill="url(#bg)"/>
<rect width="800" height="450" fill="url(#glow)"/>

<text x="40" y="50" font-family="Inter" font-size="11" fill="#3B82F6" font-weight="600" letter-spacing="1.4">LIFE LOG · RUNNING</text>
<text x="40" y="94" font-family="Inter" font-size="30" fill="#0F172A" font-weight="700" letter-spacing="-0.5">Pace</text>
<text x="40" y="126" font-family="Inter" font-size="30" fill="#0F172A" font-weight="700" letter-spacing="-0.5">&amp; Load</text>
<text x="40" y="156" font-family="Inter" font-size="12" fill="#475569">주간 부하 · 페이스 분포</text>
<text x="40" y="174" font-family="Inter" font-size="12" fill="#475569">GPT-4o 코치 파이프라인</text>

<g font-family="Inter">
  <rect x="40" y="200" width="222" height="40" rx="8" fill="#FFFFFF" stroke="#E2E8F0"/>
  <text x="56" y="218" font-size="10" fill="#64748B" font-weight="600" letter-spacing="1">CUMULATIVE</text>
  <text x="56" y="234" font-size="16" fill="#1E40AF" font-weight="700">1,247 km</text>
  <rect x="40" y="250" width="222" height="40" rx="8" fill="#FFFFFF" stroke="#E2E8F0"/>
  <text x="56" y="268" font-size="10" fill="#64748B" font-weight="600" letter-spacing="1">BEST 10K PACE</text>
  <text x="56" y="284" font-size="16" fill="#1E40AF" font-weight="700">4'52" / km</text>
  <rect x="40" y="300" width="222" height="40" rx="8" fill="#FFFFFF" stroke="#E2E8F0"/>
  <text x="56" y="318" font-size="10" fill="#64748B" font-weight="600" letter-spacing="1">AI COACH SESSIONS</text>
  <text x="56" y="334" font-size="16" fill="#1E40AF" font-weight="700">62 회</text>
</g>

<g transform="translate(300, 50)">
  <rect x="0" y="0" width="460" height="220" rx="14" fill="#FFFFFF" stroke="#E2E8F0"/>
  <text x="20" y="26" font-family="Inter" font-size="10" fill="#64748B" font-weight="600" letter-spacing="0.8">WEEKLY DISTANCE &amp; CUMULATIVE (12 WEEKS)</text>

  <g transform="translate(24, 48)">
    <g stroke="#E2E8F0" stroke-width="0.6">
      <line x1="0" y1="0" x2="412" y2="0"/>
      <line x1="0" y1="40" x2="412" y2="40"/>
      <line x1="0" y1="80" x2="412" y2="80"/>
      <line x1="0" y1="120" x2="412" y2="120"/>
      <line x1="0" y1="140" x2="412" y2="140"/>
    </g>
    <g font-family="Inter" font-size="8" fill="#94A3B8" text-anchor="end">
      <text x="-6" y="4">40</text>
      <text x="-6" y="44">30</text>
      <text x="-6" y="84">20</text>
      <text x="-6" y="124">10</text>
      <text x="-6" y="144">0</text>
    </g>

    <g>
      <rect x="4"   y="52"  width="24" height="88"  rx="3" fill="#3B82F6"/>
      <rect x="38"  y="44"  width="24" height="96"  rx="3" fill="#3B82F6"/>
      <rect x="72"  y="28"  width="24" height="112" rx="3" fill="#3B82F6"/>
      <rect x="106" y="36"  width="24" height="104" rx="3" fill="#3B82F6"/>
      <rect x="140" y="20"  width="24" height="120" rx="3" fill="#3B82F6"/>
      <rect x="174" y="32"  width="24" height="108" rx="3" fill="#3B82F6"/>
      <rect x="208" y="24"  width="24" height="116" rx="3" fill="#3B82F6"/>
      <rect x="242" y="16"  width="24" height="124" rx="3" fill="#3B82F6"/>
      <rect x="276" y="40"  width="24" height="100" rx="3" fill="#3B82F6"/>
      <rect x="310" y="28"  width="24" height="112" rx="3" fill="#3B82F6"/>
      <rect x="344" y="20"  width="24" height="120" rx="3" fill="#3B82F6"/>
      <rect x="378" y="28"  width="24" height="112" rx="3" fill="#3B82F6"/>
    </g>

    <path d="M 16 136 L 50 132 L 84 126 L 118 120 L 152 112 L 186 105 L 220 97 L 254 88 L 288 81 L 322 72 L 356 62 L 390 54 L 402 52 L 402 140 L 16 140 Z" fill="url(#areaFill)"/>
    <path d="M 16 136 L 50 132 L 84 126 L 118 120 L 152 112 L 186 105 L 220 97 L 254 88 L 288 81 L 322 72 L 356 62 L 390 54" fill="none" stroke="#1E40AF" stroke-width="2" stroke-linecap="round" stroke-linejoin="round"/>
    <g>
      <circle cx="16"  cy="136" r="2.5" fill="#1E40AF"/>
      <circle cx="50"  cy="132" r="2.5" fill="#1E40AF"/>
      <circle cx="84"  cy="126" r="2.5" fill="#1E40AF"/>
      <circle cx="118" cy="120" r="2.5" fill="#1E40AF"/>
      <circle cx="152" cy="112" r="2.5" fill="#1E40AF"/>
      <circle cx="186" cy="105" r="2.5" fill="#1E40AF"/>
      <circle cx="220" cy="97"  r="2.5" fill="#1E40AF"/>
      <circle cx="254" cy="88"  r="2.5" fill="#1E40AF"/>
      <circle cx="288" cy="81"  r="2.5" fill="#1E40AF"/>
      <circle cx="322" cy="72"  r="2.5" fill="#1E40AF"/>
      <circle cx="356" cy="62"  r="2.5" fill="#1E40AF"/>
      <circle cx="390" cy="54"  r="2.5" fill="#1E40AF"/>
    </g>

    <g font-family="Inter" font-size="8" fill="#94A3B8" text-anchor="middle">
      <text x="16" y="156">W-12</text>
      <text x="152" y="156">W-8</text>
      <text x="288" y="156">W-4</text>
      <text x="390" y="156">W-1</text>
    </g>
  </g>

  <g font-family="Inter" font-size="9" fill="#475569" transform="translate(300, 22)">
    <rect x="-4" y="-14" width="12" height="10" fill="#3B82F6" rx="2"/>
    <text x="12" y="-5">주간 거리</text>
    <line x1="72" y1="-9" x2="88" y2="-9" stroke="#1E40AF" stroke-width="2"/>
    <circle cx="80" cy="-9" r="2" fill="#1E40AF"/>
    <text x="92" y="-5">누적 (km)</text>
  </g>
</g>

<g transform="translate(300, 290)">
  <rect x="0" y="0" width="460" height="126" rx="10" fill="#FFFFFF" stroke="#E2E8F0"/>
  <text x="20" y="22" font-family="Inter" font-size="10" fill="#64748B" font-weight="600" letter-spacing="0.8">PACE DISTRIBUTION (last 90 days)</text>
  <g transform="translate(20, 40)">
    <rect x="0"   y="42" width="26" height="32" fill="#BFDBFE"/>
    <rect x="32"  y="28" width="26" height="46" fill="#93C5FD"/>
    <rect x="64"  y="14" width="26" height="60" fill="#60A5FA"/>
    <rect x="96"  y="4"  width="26" height="70" fill="#3B82F6"/>
    <rect x="128" y="10" width="26" height="64" fill="#3B82F6"/>
    <rect x="160" y="20" width="26" height="54" fill="#1E40AF"/>
    <rect x="192" y="30" width="26" height="44" fill="#1E40AF"/>
    <rect x="224" y="44" width="26" height="30" fill="#1E40AF" fill-opacity="0.6"/>
    <rect x="256" y="54" width="26" height="20" fill="#1E40AF" fill-opacity="0.4"/>
    <line x1="-6" y1="74" x2="288" y2="74" stroke="#CBD5E1" stroke-width="0.8"/>
    <g font-family="Inter" font-size="8" fill="#94A3B8">
      <text x="0"   y="86">4'30</text>
      <text x="64"  y="86">5'00</text>
      <text x="128" y="86">5'30</text>
      <text x="192" y="86">6'00</text>
      <text x="256" y="86">6'30</text>
    </g>
    <rect x="96"  y="-8" width="26" height="2" fill="#1E40AF"/>
    <text x="124" y="-4" font-family="Inter" font-size="8" fill="#1E40AF" font-weight="600">Tempo</text>
    <rect x="192" y="-8" width="58" height="2" fill="#60A5FA"/>
    <text x="254" y="-4" font-family="Inter" font-size="8" fill="#60A5FA" font-weight="600">Easy Z2</text>
  </g>

  <g transform="translate(320, 14)">
    <rect x="0" y="0" width="126" height="96" rx="8" fill="#EFF4FB" stroke="#DBEAFE"/>
    <text x="14" y="22" font-family="Inter" font-size="9" fill="#64748B" font-weight="600" letter-spacing="0.6">WEEKLY AVG</text>
    <text x="14" y="52" font-family="Inter" font-size="22" fill="#1E40AF" font-weight="700">28.4 km</text>
    <text x="14" y="72" font-family="Inter" font-size="9" fill="#3B82F6">+10% capped</text>
    <text x="14" y="86" font-family="Inter" font-size="9" fill="#3B82F6">(Atkinson rule)</text>
  </g>
</g>

<line x1="284" y1="44" x2="284" y2="406" stroke="#CBD5E1" stroke-width="0.6" stroke-dasharray="3 4"/>

<rect x="670" y="420" width="110" height="22" rx="4" fill="#0F172A" fill-opacity="0.9"/>
<text x="725" y="435" font-family="Inter" font-size="10" fill="#DBEAFE" text-anchor="middle" letter-spacing="1.2" font-weight="600">AI RUN COACH</text>
</svg>
