<svg xmlns="http://www.w3.org/2000/svg" viewBox="0 0 800 450" preserveAspectRatio="xMidYMid slice" role="img" aria-label="DID analysis: AI skill share trend treat vs control">
<defs>
  <linearGradient id="bg" x1="0" y1="0" x2="1" y2="1">
    <stop offset="0%" stop-color="#F8FAFC"/>
    <stop offset="100%" stop-color="#DCE8FB"/>
  </linearGradient>
  <radialGradient id="glow" cx="60%" cy="40%" r="60%">
    <stop offset="0%" stop-color="#60A5FA" stop-opacity="0.16"/>
    <stop offset="100%" stop-color="#60A5FA" stop-opacity="0"/>
  </radialGradient>
</defs>
<rect width="800" height="450" fill="url(#bg)"/>
<rect width="800" height="450" fill="url(#glow)"/>
<line x1="80" y1="321.1" x2="750" y2="321.1" stroke="#E2E8F0" stroke-width="0.7" stroke-dasharray="3,3"/>
<text x="72" y="325.1" font-family="Inter" font-size="10" fill="#94A3B8" text-anchor="end">10%</text>
<line x1="80" y1="252.2" x2="750" y2="252.2" stroke="#E2E8F0" stroke-width="0.7" stroke-dasharray="3,3"/>
<text x="72" y="256.2" font-family="Inter" font-size="10" fill="#94A3B8" text-anchor="end">20%</text>
<line x1="80" y1="183.3" x2="750" y2="183.3" stroke="#E2E8F0" stroke-width="0.7" stroke-dasharray="3,3"/>
<text x="72" y="187.3" font-family="Inter" font-size="10" fill="#94A3B8" text-anchor="end">30%</text>
<line x1="80" y1="114.4" x2="750" y2="114.4" stroke="#E2E8F0" stroke-width="0.7" stroke-dasharray="3,3"/>
<text x="72" y="118.4" font-family="Inter" font-size="10" fill="#94A3B8" text-anchor="end">40%</text>
<line x1="80.0" y1="390" x2="80.0" y2="395" stroke="#94A3B8" stroke-width="0.8"/>
<text x="80.0" y="410.0" font-family="Inter" font-size="10" fill="#64748B" text-anchor="middle">2023</text>
<line x1="291.6" y1="390" x2="291.6" y2="395" stroke="#94A3B8" stroke-width="0.8"/>
<text x="291.6" y="410.0" font-family="Inter" font-size="10" fill="#64748B" text-anchor="middle">2024</text>
<line x1="503.2" y1="390" x2="503.2" y2="395" stroke="#94A3B8" stroke-width="0.8"/>
<text x="503.2" y="410.0" font-family="Inter" font-size="10" fill="#64748B" text-anchor="middle">2025</text>
<line x1="714.7" y1="390" x2="714.7" y2="395" stroke="#94A3B8" stroke-width="0.8"/>
<text x="714.7" y="410.0" font-family="Inter" font-size="10" fill="#64748B" text-anchor="middle">2026</text>
<line x1="80" y1="390" x2="750" y2="390" stroke="#94A3B8" stroke-width="1"/>
<line x1="80" y1="80" x2="80" y2="390" stroke="#94A3B8" stroke-width="1"/>
<rect x="450.3" y="80" width="299.7" height="310" fill="#3B82F6" fill-opacity="0.04"/>
<line x1="450.3" y1="72" x2="450.3" y2="395" stroke="#B91C1C" stroke-width="1.3" stroke-dasharray="4,3"/>
<text x="450.3" y="66.0" font-family="Inter" font-size="10" font-weight="600" fill="#B91C1C" text-anchor="middle">T* = 2024-10</text>
<path d="M80.0,303.8 L97.6,307.5 L115.3,302.9 L132.9,301.2 L150.5,294.0 L168.2,292.4 L185.8,288.1 L203.4,293.7 L221.1,288.2 L238.7,289.8 L256.3,285.8 L273.9,280.8 L291.6,283.2 L309.2,279.4 L326.8,272.8 L344.5,271.6 L362.1,272.6 L379.7,266.8 L397.4,262.5 L415.0,268.0 L432.6,258.1 L450.3,181.1 L467.9,176.5 L485.5,170.3 L503.2,154.5 L520.8,152.4 L538.4,146.7 L556.1,138.6 L573.7,123.3 L591.3,117.6 L608.9,107.6 L626.6,100.2 L644.2,94.0 L661.8,81.8 L679.5,79.4 L697.1,69.7 L714.7,59.0 L732.4,53.0 L750.0,42.5" fill="none" stroke="#1E40AF" stroke-width="2.4" stroke-linejoin="round"/>
<circle cx="80.0" cy="303.8" r="3" fill="#1E40AF" stroke="white" stroke-width="1"/>
<circle cx="97.6" cy="307.5" r="3" fill="#1E40AF" stroke="white" stroke-width="1"/>
<circle cx="115.3" cy="302.9" r="3" fill="#1E40AF" stroke="white" stroke-width="1"/>
<circle cx="132.9" cy="301.2" r="3" fill="#1E40AF" stroke="white" stroke-width="1"/>
<circle cx="150.5" cy="294.0" r="3" fill="#1E40AF" stroke="white" stroke-width="1"/>
<circle cx="168.2" cy="292.4" r="3" fill="#1E40AF" stroke="white" stroke-width="1"/>
<circle cx="185.8" cy="288.1" r="3" fill="#1E40AF" stroke="white" stroke-width="1"/>
<circle cx="203.4" cy="293.7" r="3" fill="#1E40AF" stroke="white" stroke-width="1"/>
<circle cx="221.1" cy="288.2" r="3" fill="#1E40AF" stroke="white" stroke-width="1"/>
<circle cx="238.7" cy="289.8" r="3" fill="#1E40AF" stroke="white" stroke-width="1"/>
<circle cx="256.3" cy="285.8" r="3" fill="#1E40AF" stroke="white" stroke-width="1"/>
<circle cx="273.9" cy="280.8" r="3" fill="#1E40AF" stroke="white" stroke-width="1"/>
<circle cx="291.6" cy="283.2" r="3" fill="#1E40AF" stroke="white" stroke-width="1"/>
<circle cx="309.2" cy="279.4" r="3" fill="#1E40AF" stroke="white" stroke-width="1"/>
<circle cx="326.8" cy="272.8" r="3" fill="#1E40AF" stroke="white" stroke-width="1"/>
<circle cx="344.5" cy="271.6" r="3" fill="#1E40AF" stroke="white" stroke-width="1"/>
<circle cx="362.1" cy="272.6" r="3" fill="#1E40AF" stroke="white" stroke-width="1"/>
<circle cx="379.7" cy="266.8" r="3" fill="#1E40AF" stroke="white" stroke-width="1"/>
<circle cx="397.4" cy="262.5" r="3" fill="#1E40AF" stroke="white" stroke-width="1"/>
<circle cx="415.0" cy="268.0" r="3" fill="#1E40AF" stroke="white" stroke-width="1"/>
<circle cx="432.6" cy="258.1" r="3" fill="#1E40AF" stroke="white" stroke-width="1"/>
<circle cx="450.3" cy="181.1" r="3" fill="#1E40AF" stroke="white" stroke-width="1"/>
<circle cx="467.9" cy="176.5" r="3" fill="#1E40AF" stroke="white" stroke-width="1"/>
<circle cx="485.5" cy="170.3" r="3" fill="#1E40AF" stroke="white" stroke-width="1"/>
<circle cx="503.2" cy="154.5" r="3" fill="#1E40AF" stroke="white" stroke-width="1"/>
<circle cx="520.8" cy="152.4" r="3" fill="#1E40AF" stroke="white" stroke-width="1"/>
<circle cx="538.4" cy="146.7" r="3" fill="#1E40AF" stroke="white" stroke-width="1"/>
<circle cx="556.1" cy="138.6" r="3" fill="#1E40AF" stroke="white" stroke-width="1"/>
<circle cx="573.7" cy="123.3" r="3" fill="#1E40AF" stroke="white" stroke-width="1"/>
<circle cx="591.3" cy="117.6" r="3" fill="#1E40AF" stroke="white" stroke-width="1"/>
<circle cx="608.9" cy="107.6" r="3" fill="#1E40AF" stroke="white" stroke-width="1"/>
<circle cx="626.6" cy="100.2" r="3" fill="#1E40AF" stroke="white" stroke-width="1"/>
<circle cx="644.2" cy="94.0" r="3" fill="#1E40AF" stroke="white" stroke-width="1"/>
<circle cx="661.8" cy="81.8" r="3" fill="#1E40AF" stroke="white" stroke-width="1"/>
<circle cx="679.5" cy="79.4" r="3" fill="#1E40AF" stroke="white" stroke-width="1"/>
<circle cx="697.1" cy="69.7" r="3" fill="#1E40AF" stroke="white" stroke-width="1"/>
<circle cx="714.7" cy="59.0" r="3" fill="#1E40AF" stroke="white" stroke-width="1"/>
<circle cx="732.4" cy="53.0" r="3" fill="#1E40AF" stroke="white" stroke-width="1"/>
<circle cx="750.0" cy="42.5" r="3" fill="#1E40AF" stroke="white" stroke-width="1"/>
<path d="M80.0,354.4 L97.6,352.9 L115.3,357.3 L132.9,355.4 L150.5,354.4 L168.2,355.4 L185.8,353.7 L203.4,354.2 L221.1,352.3 L238.7,349.0 L256.3,350.5 L273.9,349.9 L291.6,350.6 L309.2,349.6 L326.8,344.0 L344.5,345.6 L362.1,345.4 L379.7,348.1 L397.4,343.3 L415.0,347.1 L432.6,344.9 L450.3,331.5 L467.9,333.2 L485.5,332.9 L503.2,331.1 L520.8,329.0 L538.4,328.6 L556.1,331.8 L573.7,332.4 L591.3,329.4 L608.9,328.9 L626.6,328.4 L644.2,322.0 L661.8,321.6 L679.5,324.9 L697.1,321.4 L714.7,322.5 L732.4,317.7 L750.0,320.3" fill="none" stroke="#94A3B8" stroke-width="2.2" stroke-dasharray="6,3" stroke-linejoin="round"/>
<circle cx="80.0" cy="354.4" r="2.6" fill="#94A3B8" stroke="white" stroke-width="0.8"/>
<circle cx="97.6" cy="352.9" r="2.6" fill="#94A3B8" stroke="white" stroke-width="0.8"/>
<circle cx="115.3" cy="357.3" r="2.6" fill="#94A3B8" stroke="white" stroke-width="0.8"/>
<circle cx="132.9" cy="355.4" r="2.6" fill="#94A3B8" stroke="white" stroke-width="0.8"/>
<circle cx="150.5" cy="354.4" r="2.6" fill="#94A3B8" stroke="white" stroke-width="0.8"/>
<circle cx="168.2" cy="355.4" r="2.6" fill="#94A3B8" stroke="white" stroke-width="0.8"/>
<circle cx="185.8" cy="353.7" r="2.6" fill="#94A3B8" stroke="white" stroke-width="0.8"/>
<circle cx="203.4" cy="354.2" r="2.6" fill="#94A3B8" stroke="white" stroke-width="0.8"/>
<circle cx="221.1" cy="352.3" r="2.6" fill="#94A3B8" stroke="white" stroke-width="0.8"/>
<circle cx="238.7" cy="349.0" r="2.6" fill="#94A3B8" stroke="white" stroke-width="0.8"/>
<circle cx="256.3" cy="350.5" r="2.6" fill="#94A3B8" stroke="white" stroke-width="0.8"/>
<circle cx="273.9" cy="349.9" r="2.6" fill="#94A3B8" stroke="white" stroke-width="0.8"/>
<circle cx="291.6" cy="350.6" r="2.6" fill="#94A3B8" stroke="white" stroke-width="0.8"/>
<circle cx="309.2" cy="349.6" r="2.6" fill="#94A3B8" stroke="white" stroke-width="0.8"/>
<circle cx="326.8" cy="344.0" r="2.6" fill="#94A3B8" stroke="white" stroke-width="0.8"/>
<circle cx="344.5" cy="345.6" r="2.6" fill="#94A3B8" stroke="white" stroke-width="0.8"/>
<circle cx="362.1" cy="345.4" r="2.6" fill="#94A3B8" stroke="white" stroke-width="0.8"/>
<circle cx="379.7" cy="348.1" r="2.6" fill="#94A3B8" stroke="white" stroke-width="0.8"/>
<circle cx="397.4" cy="343.3" r="2.6" fill="#94A3B8" stroke="white" stroke-width="0.8"/>
<circle cx="415.0" cy="347.1" r="2.6" fill="#94A3B8" stroke="white" stroke-width="0.8"/>
<circle cx="432.6" cy="344.9" r="2.6" fill="#94A3B8" stroke="white" stroke-width="0.8"/>
<circle cx="450.3" cy="331.5" r="2.6" fill="#94A3B8" stroke="white" stroke-width="0.8"/>
<circle cx="467.9" cy="333.2" r="2.6" fill="#94A3B8" stroke="white" stroke-width="0.8"/>
<circle cx="485.5" cy="332.9" r="2.6" fill="#94A3B8" stroke="white" stroke-width="0.8"/>
<circle cx="503.2" cy="331.1" r="2.6" fill="#94A3B8" stroke="white" stroke-width="0.8"/>
<circle cx="520.8" cy="329.0" r="2.6" fill="#94A3B8" stroke="white" stroke-width="0.8"/>
<circle cx="538.4" cy="328.6" r="2.6" fill="#94A3B8" stroke="white" stroke-width="0.8"/>
<circle cx="556.1" cy="331.8" r="2.6" fill="#94A3B8" stroke="white" stroke-width="0.8"/>
<circle cx="573.7" cy="332.4" r="2.6" fill="#94A3B8" stroke="white" stroke-width="0.8"/>
<circle cx="591.3" cy="329.4" r="2.6" fill="#94A3B8" stroke="white" stroke-width="0.8"/>
<circle cx="608.9" cy="328.9" r="2.6" fill="#94A3B8" stroke="white" stroke-width="0.8"/>
<circle cx="626.6" cy="328.4" r="2.6" fill="#94A3B8" stroke="white" stroke-width="0.8"/>
<circle cx="644.2" cy="322.0" r="2.6" fill="#94A3B8" stroke="white" stroke-width="0.8"/>
<circle cx="661.8" cy="321.6" r="2.6" fill="#94A3B8" stroke="white" stroke-width="0.8"/>
<circle cx="679.5" cy="324.9" r="2.6" fill="#94A3B8" stroke="white" stroke-width="0.8"/>
<circle cx="697.1" cy="321.4" r="2.6" fill="#94A3B8" stroke="white" stroke-width="0.8"/>
<circle cx="714.7" cy="322.5" r="2.6" fill="#94A3B8" stroke="white" stroke-width="0.8"/>
<circle cx="732.4" cy="317.7" r="2.6" fill="#94A3B8" stroke="white" stroke-width="0.8"/>
<circle cx="750.0" cy="320.3" r="2.6" fill="#94A3B8" stroke="white" stroke-width="0.8"/>
<line x1="764.0" y1="42.5" x2="764.0" y2="320.3" stroke="#3B82F6" stroke-width="1" marker-start="url(#arr)" marker-end="url(#arr)"/>
<text x="772.0" y="185.4" font-family="Inter" font-size="10" font-weight="600" fill="#1E40AF">δ̂</text>
<g font-family="'Inter', 'Noto Sans KR', sans-serif" fill="#0F172A">
  <text x="36" y="44" font-size="19" font-weight="700" letter-spacing="-0.01em">AI Skill Demand · DID Estimate</text>
  <text x="36" y="64" font-size="12" font-weight="500" fill="#475569">Treat (AI/ML + Backend) vs Control (Mobile + QA) · δ̂ = +15.2%p</text>
</g>
<g font-family="Inter" font-size="10.5" fill="#475569">
  <circle cx="100" cy="98" r="4" fill="#1E40AF"/>
  <text x="110" y="102">Treatment</text>
  <circle cx="200" cy="98" r="3.5" fill="#94A3B8"/>
  <text x="210" y="102">Control</text>
</g>
</svg>