<svg xmlns="http://www.w3.org/2000/svg" viewBox="0 0 800 450" preserveAspectRatio="xMidYMid slice" role="img" aria-label="AI Agent Patent Map: UMAP 2D embedding by technology cluster">
<defs>
  <linearGradient id="bg" x1="0" y1="0" x2="1" y2="1">
    <stop offset="0%" stop-color="#F8FAFC"/>
    <stop offset="100%" stop-color="#DCE8FB"/>
  </linearGradient>
  <radialGradient id="glow" cx="55%" cy="45%" r="65%">
    <stop offset="0%" stop-color="#60A5FA" stop-opacity="0.18"/>
    <stop offset="100%" stop-color="#60A5FA" stop-opacity="0"/>
  </radialGradient>
  <radialGradient id="dot">
    <stop offset="0%" stop-color="#FFFFFF" stop-opacity="0.55"/>
    <stop offset="60%" stop-color="#FFFFFF" stop-opacity="0"/>
  </radialGradient>
</defs>
<rect width="800" height="450" fill="url(#bg)"/>
<rect width="800" height="450" fill="url(#glow)"/>
<line x1="80" y1="390" x2="750" y2="390" stroke="#CBD5E1" stroke-width="0.7"/>
<line x1="80" y1="70" x2="80" y2="390" stroke="#CBD5E1" stroke-width="0.7"/>
<text x="750" y="412" font-family="Inter" font-size="10" fill="#94A3B8" text-anchor="end" font-style="italic">UMAP-1</text>
<text x="68" y="62" font-family="Inter" font-size="10" fill="#94A3B8" text-anchor="start" font-style="italic">UMAP-2</text>
<ellipse cx="547.8" cy="206.5" rx="76.9" ry="44.4" fill="#1E40AF" fill-opacity="0.08"/>
<ellipse cx="456.3" cy="294.6" rx="65.9" ry="38.1" fill="#2563EB" fill-opacity="0.08"/>
<ellipse cx="608.8" cy="259.4" rx="71.4" ry="41.2" fill="#3B82F6" fill-opacity="0.08"/>
<ellipse cx="322.1" cy="213.6" rx="60.4" ry="34.9" fill="#1D4ED8" fill-opacity="0.08"/>
<ellipse cx="395.3" cy="153.7" rx="65.9" ry="38.1" fill="#60A5FA" fill-opacity="0.08"/>
<ellipse cx="224.5" cy="277.0" rx="71.4" ry="41.2" fill="#0EA5E9" fill-opacity="0.08"/>
<ellipse cx="273.3" cy="329.8" rx="60.4" ry="34.9" fill="#1E3A8A" fill-opacity="0.08"/>
<ellipse cx="486.8" cy="118.4" rx="54.9" ry="31.7" fill="#94A3B8" fill-opacity="0.08"/>
<circle cx="543.4" cy="101.0" r="3.2" fill="#94A3B8" fill-opacity="0.78"/>
<circle cx="422.5" cy="320.9" r="3.2" fill="#2563EB" fill-opacity="0.78"/>
<circle cx="330.8" cy="275.4" r="3.2" fill="#0EA5E9" fill-opacity="0.78"/>
<circle cx="237.7" cy="286.1" r="3.2" fill="#0EA5E9" fill-opacity="0.78"/>
<circle cx="202.0" cy="297.9" r="3.2" fill="#0EA5E9" fill-opacity="0.78"/>
<circle cx="396.2" cy="127.8" r="3.2" fill="#60A5FA" fill-opacity="0.78"/>
<circle cx="608.4" cy="224.1" r="3.2" fill="#1E40AF" fill-opacity="0.78"/>
<circle cx="609.2" cy="214.3" r="3.2" fill="#1E40AF" fill-opacity="0.78"/>
<circle cx="597.3" cy="268.5" r="3.2" fill="#3B82F6" fill-opacity="0.78"/>
<circle cx="360.6" cy="303.5" r="3.2" fill="#2563EB" fill-opacity="0.78"/>
<circle cx="631.8" cy="274.0" r="3.2" fill="#3B82F6" fill-opacity="0.78"/>
<circle cx="462.1" cy="290.8" r="3.2" fill="#2563EB" fill-opacity="0.78"/>
<circle cx="470.6" cy="333.8" r="3.2" fill="#2563EB" fill-opacity="0.78"/>
<circle cx="600.9" cy="209.8" r="3.2" fill="#1E40AF" fill-opacity="0.78"/>
<circle cx="286.6" cy="212.2" r="3.2" fill="#1D4ED8" fill-opacity="0.78"/>
<circle cx="428.6" cy="260.4" r="3.2" fill="#2563EB" fill-opacity="0.78"/>
<circle cx="568.0" cy="243.2" r="3.2" fill="#3B82F6" fill-opacity="0.78"/>
<circle cx="273.7" cy="241.8" r="3.2" fill="#1D4ED8" fill-opacity="0.78"/>
<circle cx="343.3" cy="226.6" r="3.2" fill="#1D4ED8" fill-opacity="0.78"/>
<circle cx="404.5" cy="151.0" r="3.2" fill="#60A5FA" fill-opacity="0.78"/>
<circle cx="561.7" cy="202.6" r="3.2" fill="#1E40AF" fill-opacity="0.78"/>
<circle cx="233.5" cy="338.1" r="3.2" fill="#1E3A8A" fill-opacity="0.78"/>
<circle cx="631.5" cy="284.2" r="3.2" fill="#3B82F6" fill-opacity="0.78"/>
<circle cx="630.7" cy="204.4" r="3.2" fill="#1E40AF" fill-opacity="0.78"/>
<circle cx="433.9" cy="111.7" r="3.2" fill="#60A5FA" fill-opacity="0.78"/>
<circle cx="188.0" cy="231.1" r="3.2" fill="#0EA5E9" fill-opacity="0.78"/>
<circle cx="393.3" cy="148.3" r="3.2" fill="#60A5FA" fill-opacity="0.78"/>
<circle cx="395.4" cy="298.3" r="3.2" fill="#2563EB" fill-opacity="0.78"/>
<circle cx="412.6" cy="303.0" r="3.2" fill="#2563EB" fill-opacity="0.78"/>
<circle cx="160.4" cy="304.9" r="3.2" fill="#0EA5E9" fill-opacity="0.78"/>
<circle cx="135.8" cy="286.4" r="3.2" fill="#0EA5E9" fill-opacity="0.78"/>
<circle cx="461.4" cy="307.4" r="3.2" fill="#2563EB" fill-opacity="0.78"/>
<circle cx="500.3" cy="284.4" r="3.2" fill="#2563EB" fill-opacity="0.78"/>
<circle cx="300.1" cy="331.6" r="3.2" fill="#1E3A8A" fill-opacity="0.78"/>
<circle cx="573.5" cy="275.0" r="3.2" fill="#3B82F6" fill-opacity="0.78"/>
<circle cx="639.6" cy="183.4" r="3.2" fill="#1E40AF" fill-opacity="0.78"/>
<circle cx="396.2" cy="269.6" r="3.2" fill="#2563EB" fill-opacity="0.78"/>
<circle cx="471.3" cy="90.9" r="3.2" fill="#94A3B8" fill-opacity="0.78"/>
<circle cx="446.9" cy="128.5" r="3.2" fill="#94A3B8" fill-opacity="0.78"/>
<circle cx="210.8" cy="236.0" r="3.2" fill="#0EA5E9" fill-opacity="0.78"/>
<circle cx="533.9" cy="125.1" r="3.2" fill="#94A3B8" fill-opacity="0.78"/>
<circle cx="220.9" cy="334.9" r="3.2" fill="#1E3A8A" fill-opacity="0.78"/>
<circle cx="223.2" cy="231.8" r="3.2" fill="#1D4ED8" fill-opacity="0.78"/>
<circle cx="590.8" cy="174.4" r="3.2" fill="#1E40AF" fill-opacity="0.78"/>
<circle cx="475.9" cy="124.7" r="3.2" fill="#94A3B8" fill-opacity="0.78"/>
<circle cx="215.7" cy="240.5" r="3.2" fill="#0EA5E9" fill-opacity="0.78"/>
<circle cx="610.6" cy="212.0" r="3.2" fill="#1E40AF" fill-opacity="0.78"/>
<circle cx="596.3" cy="230.7" r="3.2" fill="#3B82F6" fill-opacity="0.78"/>
<circle cx="173.6" cy="237.3" r="3.2" fill="#0EA5E9" fill-opacity="0.78"/>
<circle cx="289.1" cy="248.6" r="3.2" fill="#1D4ED8" fill-opacity="0.78"/>
<circle cx="450.5" cy="306.7" r="3.2" fill="#2563EB" fill-opacity="0.78"/>
<circle cx="630.0" cy="255.0" r="3.2" fill="#3B82F6" fill-opacity="0.78"/>
<circle cx="440.3" cy="271.7" r="3.2" fill="#2563EB" fill-opacity="0.78"/>
<circle cx="277.2" cy="328.1" r="3.2" fill="#1E3A8A" fill-opacity="0.78"/>
<circle cx="433.2" cy="270.2" r="3.2" fill="#2563EB" fill-opacity="0.78"/>
<circle cx="354.9" cy="294.5" r="3.2" fill="#2563EB" fill-opacity="0.78"/>
<circle cx="239.7" cy="375.2" r="3.2" fill="#1E3A8A" fill-opacity="0.78"/>
<circle cx="471.3" cy="290.4" r="3.2" fill="#2563EB" fill-opacity="0.78"/>
<circle cx="582.6" cy="210.9" r="3.2" fill="#1E40AF" fill-opacity="0.78"/>
<circle cx="474.4" cy="265.3" r="3.2" fill="#2563EB" fill-opacity="0.78"/>
<circle cx="597.7" cy="192.9" r="3.2" fill="#1E40AF" fill-opacity="0.78"/>
<circle cx="459.0" cy="300.9" r="3.2" fill="#2563EB" fill-opacity="0.78"/>
<circle cx="333.4" cy="188.9" r="3.2" fill="#1D4ED8" fill-opacity="0.78"/>
<circle cx="361.6" cy="171.0" r="3.2" fill="#1D4ED8" fill-opacity="0.78"/>
<circle cx="264.8" cy="248.1" r="3.2" fill="#0EA5E9" fill-opacity="0.78"/>
<circle cx="283.4" cy="222.7" r="3.2" fill="#0EA5E9" fill-opacity="0.78"/>
<circle cx="388.3" cy="170.6" r="3.2" fill="#60A5FA" fill-opacity="0.78"/>
<circle cx="455.8" cy="319.0" r="3.2" fill="#2563EB" fill-opacity="0.78"/>
<circle cx="555.7" cy="243.3" r="3.2" fill="#3B82F6" fill-opacity="0.78"/>
<circle cx="404.2" cy="141.2" r="3.2" fill="#60A5FA" fill-opacity="0.78"/>
<circle cx="222.2" cy="225.6" r="3.2" fill="#0EA5E9" fill-opacity="0.78"/>
<circle cx="364.3" cy="178.6" r="3.2" fill="#60A5FA" fill-opacity="0.78"/>
<circle cx="209.2" cy="247.3" r="3.2" fill="#0EA5E9" fill-opacity="0.78"/>
<circle cx="584.3" cy="232.8" r="3.2" fill="#1E40AF" fill-opacity="0.78"/>
<circle cx="236.8" cy="264.9" r="3.2" fill="#0EA5E9" fill-opacity="0.78"/>
<circle cx="455.6" cy="289.1" r="3.2" fill="#2563EB" fill-opacity="0.78"/>
<circle cx="465.9" cy="268.9" r="3.2" fill="#2563EB" fill-opacity="0.78"/>
<circle cx="539.4" cy="179.3" r="3.2" fill="#1E40AF" fill-opacity="0.78"/>
<circle cx="536.3" cy="155.0" r="3.2" fill="#1E40AF" fill-opacity="0.78"/>
<circle cx="534.9" cy="272.0" r="3.2" fill="#3B82F6" fill-opacity="0.78"/>
<circle cx="169.2" cy="335.8" r="3.2" fill="#0EA5E9" fill-opacity="0.78"/>
<circle cx="278.5" cy="371.5" r="3.2" fill="#1E3A8A" fill-opacity="0.78"/>
<circle cx="271.7" cy="338.1" r="3.2" fill="#1E3A8A" fill-opacity="0.78"/>
<circle cx="285.7" cy="367.0" r="3.2" fill="#1E3A8A" fill-opacity="0.78"/>
<circle cx="485.3" cy="294.9" r="3.2" fill="#2563EB" fill-opacity="0.78"/>
<circle cx="110.5" cy="266.5" r="3.2" fill="#0EA5E9" fill-opacity="0.78"/>
<circle cx="237.6" cy="288.3" r="3.2" fill="#0EA5E9" fill-opacity="0.78"/>
<circle cx="320.1" cy="191.4" r="3.2" fill="#1D4ED8" fill-opacity="0.78"/>
<circle cx="474.5" cy="120.4" r="3.2" fill="#94A3B8" fill-opacity="0.78"/>
<circle cx="190.2" cy="272.8" r="3.2" fill="#0EA5E9" fill-opacity="0.78"/>
<circle cx="229.7" cy="332.0" r="3.2" fill="#1E3A8A" fill-opacity="0.78"/>
<circle cx="572.1" cy="247.6" r="3.2" fill="#1E40AF" fill-opacity="0.78"/>
<circle cx="618.3" cy="289.0" r="3.2" fill="#3B82F6" fill-opacity="0.78"/>
<circle cx="423.7" cy="289.0" r="3.2" fill="#2563EB" fill-opacity="0.78"/>
<circle cx="498.4" cy="209.7" r="3.2" fill="#1E40AF" fill-opacity="0.78"/>
<circle cx="333.7" cy="340.2" r="3.2" fill="#1E3A8A" fill-opacity="0.78"/>
<circle cx="359.6" cy="336.9" r="3.2" fill="#1E3A8A" fill-opacity="0.78"/>
<circle cx="595.7" cy="210.1" r="3.2" fill="#3B82F6" fill-opacity="0.78"/>
<circle cx="530.0" cy="215.9" r="3.2" fill="#1E40AF" fill-opacity="0.78"/>
<circle cx="574.2" cy="261.6" r="3.2" fill="#1E40AF" fill-opacity="0.78"/>
<circle cx="359.7" cy="159.2" r="3.2" fill="#60A5FA" fill-opacity="0.78"/>
<circle cx="315.9" cy="200.5" r="3.2" fill="#1D4ED8" fill-opacity="0.78"/>
<circle cx="338.0" cy="155.9" r="3.2" fill="#60A5FA" fill-opacity="0.78"/>
<circle cx="444.5" cy="134.6" r="3.2" fill="#60A5FA" fill-opacity="0.78"/>
<circle cx="621.4" cy="264.5" r="3.2" fill="#3B82F6" fill-opacity="0.78"/>
<circle cx="259.1" cy="295.7" r="3.2" fill="#0EA5E9" fill-opacity="0.78"/>
<circle cx="518.2" cy="191.3" r="3.2" fill="#1E40AF" fill-opacity="0.78"/>
<circle cx="248.8" cy="289.1" r="3.2" fill="#1E3A8A" fill-opacity="0.78"/>
<circle cx="521.5" cy="97.5" r="3.2" fill="#94A3B8" fill-opacity="0.78"/>
<circle cx="357.3" cy="182.0" r="3.2" fill="#60A5FA" fill-opacity="0.78"/>
<circle cx="373.2" cy="336.6" r="3.2" fill="#2563EB" fill-opacity="0.78"/>
<circle cx="447.3" cy="171.2" r="3.2" fill="#60A5FA" fill-opacity="0.78"/>
<circle cx="515.3" cy="200.1" r="3.2" fill="#1E40AF" fill-opacity="0.78"/>
<circle cx="594.5" cy="283.8" r="3.2" fill="#3B82F6" fill-opacity="0.78"/>
<circle cx="586.3" cy="208.5" r="3.2" fill="#1E40AF" fill-opacity="0.78"/>
<circle cx="560.9" cy="264.9" r="3.2" fill="#3B82F6" fill-opacity="0.78"/>
<circle cx="450.0" cy="173.9" r="3.2" fill="#60A5FA" fill-opacity="0.78"/>
<circle cx="572.1" cy="213.1" r="3.2" fill="#1E40AF" fill-opacity="0.78"/>
<circle cx="506.7" cy="273.7" r="3.2" fill="#3B82F6" fill-opacity="0.78"/>
<circle cx="523.5" cy="191.2" r="3.2" fill="#1E40AF" fill-opacity="0.78"/>
<circle cx="258.2" cy="274.5" r="3.2" fill="#0EA5E9" fill-opacity="0.78"/>
<circle cx="353.8" cy="207.1" r="3.2" fill="#1D4ED8" fill-opacity="0.78"/>
<circle cx="240.9" cy="309.1" r="3.2" fill="#1E3A8A" fill-opacity="0.78"/>
<circle cx="422.7" cy="158.1" r="3.2" fill="#94A3B8" fill-opacity="0.78"/>
<circle cx="247.2" cy="295.7" r="3.2" fill="#0EA5E9" fill-opacity="0.78"/>
<circle cx="211.1" cy="283.0" r="3.2" fill="#0EA5E9" fill-opacity="0.78"/>
<circle cx="435.4" cy="109.9" r="3.2" fill="#94A3B8" fill-opacity="0.78"/>
<circle cx="367.1" cy="229.5" r="3.2" fill="#1D4ED8" fill-opacity="0.78"/>
<circle cx="607.9" cy="215.2" r="3.2" fill="#1E40AF" fill-opacity="0.78"/>
<circle cx="373.4" cy="167.3" r="3.2" fill="#60A5FA" fill-opacity="0.78"/>
<circle cx="209.8" cy="254.1" r="3.2" fill="#0EA5E9" fill-opacity="0.78"/>
<circle cx="543.6" cy="184.0" r="3.2" fill="#1E40AF" fill-opacity="0.78"/>
<circle cx="592.2" cy="225.7" r="3.2" fill="#1E40AF" fill-opacity="0.78"/>
<circle cx="534.4" cy="299.0" r="3.2" fill="#2563EB" fill-opacity="0.78"/>
<circle cx="608.6" cy="242.8" r="3.2" fill="#3B82F6" fill-opacity="0.78"/>
<circle cx="182.1" cy="268.2" r="3.2" fill="#0EA5E9" fill-opacity="0.78"/>
<circle cx="604.5" cy="239.9" r="3.2" fill="#3B82F6" fill-opacity="0.78"/>
<circle cx="510.5" cy="112.6" r="3.2" fill="#94A3B8" fill-opacity="0.78"/>
<circle cx="363.6" cy="191.8" r="3.2" fill="#60A5FA" fill-opacity="0.78"/>
<circle cx="430.1" cy="302.8" r="3.2" fill="#2563EB" fill-opacity="0.78"/>
<circle cx="424.8" cy="293.6" r="3.2" fill="#2563EB" fill-opacity="0.78"/>
<circle cx="609.6" cy="229.9" r="3.2" fill="#3B82F6" fill-opacity="0.78"/>
<circle cx="438.1" cy="163.9" r="3.2" fill="#60A5FA" fill-opacity="0.78"/>
<circle cx="478.9" cy="323.8" r="3.2" fill="#2563EB" fill-opacity="0.78"/>
<circle cx="504.0" cy="120.1" r="3.2" fill="#94A3B8" fill-opacity="0.78"/>
<circle cx="459.5" cy="84.5" r="3.2" fill="#94A3B8" fill-opacity="0.78"/>
<circle cx="363.7" cy="198.1" r="3.2" fill="#1D4ED8" fill-opacity="0.78"/>
<circle cx="177.1" cy="297.8" r="3.2" fill="#0EA5E9" fill-opacity="0.78"/>
<circle cx="337.1" cy="182.6" r="3.2" fill="#1D4ED8" fill-opacity="0.78"/>
<circle cx="472.9" cy="113.7" r="3.2" fill="#94A3B8" fill-opacity="0.78"/>
<circle cx="557.0" cy="219.8" r="3.2" fill="#1E40AF" fill-opacity="0.78"/>
<circle cx="314.0" cy="190.3" r="3.2" fill="#1D4ED8" fill-opacity="0.78"/>
<circle cx="400.2" cy="153.6" r="3.2" fill="#60A5FA" fill-opacity="0.78"/>
<circle cx="468.9" cy="133.1" r="3.2" fill="#94A3B8" fill-opacity="0.78"/>
<circle cx="393.4" cy="283.0" r="3.2" fill="#2563EB" fill-opacity="0.78"/>
<circle cx="467.6" cy="292.4" r="3.2" fill="#2563EB" fill-opacity="0.78"/>
<circle cx="605.7" cy="259.1" r="3.2" fill="#3B82F6" fill-opacity="0.78"/>
<circle cx="456.5" cy="292.3" r="3.2" fill="#2563EB" fill-opacity="0.78"/>
<circle cx="653.4" cy="284.5" r="3.2" fill="#3B82F6" fill-opacity="0.78"/>
<circle cx="566.7" cy="270.2" r="3.2" fill="#1E40AF" fill-opacity="0.78"/>
<circle cx="595.2" cy="238.7" r="3.2" fill="#3B82F6" fill-opacity="0.78"/>
<circle cx="399.0" cy="214.8" r="3.2" fill="#60A5FA" fill-opacity="0.78"/>
<circle cx="284.7" cy="215.5" r="3.2" fill="#1D4ED8" fill-opacity="0.78"/>
<circle cx="334.1" cy="185.1" r="3.2" fill="#1D4ED8" fill-opacity="0.78"/>
<circle cx="265.5" cy="277.1" r="3.2" fill="#0EA5E9" fill-opacity="0.78"/>
<circle cx="278.4" cy="254.3" r="3.2" fill="#0EA5E9" fill-opacity="0.78"/>
<circle cx="349.8" cy="200.3" r="3.2" fill="#1D4ED8" fill-opacity="0.78"/>
<circle cx="411.8" cy="264.1" r="3.2" fill="#2563EB" fill-opacity="0.78"/>
<circle cx="530.0" cy="238.4" r="3.2" fill="#1E40AF" fill-opacity="0.78"/>
<circle cx="273.4" cy="217.8" r="3.2" fill="#1D4ED8" fill-opacity="0.78"/>
<circle cx="658.7" cy="245.9" r="3.2" fill="#3B82F6" fill-opacity="0.78"/>
<circle cx="631.5" cy="249.0" r="3.2" fill="#3B82F6" fill-opacity="0.78"/>
<circle cx="268.9" cy="254.2" r="3.2" fill="#1D4ED8" fill-opacity="0.78"/>
<circle cx="622.1" cy="134.1" r="3.2" fill="#1E40AF" fill-opacity="0.78"/>
<circle cx="268.3" cy="314.4" r="3.2" fill="#1E3A8A" fill-opacity="0.78"/>
<circle cx="570.6" cy="202.2" r="3.2" fill="#1E40AF" fill-opacity="0.78"/>
<circle cx="122.7" cy="293.9" r="3.2" fill="#0EA5E9" fill-opacity="0.78"/>
<circle cx="661.5" cy="192.0" r="3.2" fill="#1E40AF" fill-opacity="0.78"/>
<circle cx="530.4" cy="217.7" r="3.2" fill="#1E40AF" fill-opacity="0.78"/>
<circle cx="622.6" cy="151.4" r="3.2" fill="#1E40AF" fill-opacity="0.78"/>
<circle cx="294.0" cy="316.4" r="3.2" fill="#1E3A8A" fill-opacity="0.78"/>
<circle cx="560.5" cy="235.1" r="3.2" fill="#1E40AF" fill-opacity="0.78"/>
<circle cx="587.8" cy="219.2" r="3.2" fill="#1E40AF" fill-opacity="0.78"/>
<circle cx="382.5" cy="207.7" r="3.2" fill="#60A5FA" fill-opacity="0.78"/>
<circle cx="548.3" cy="183.5" r="3.2" fill="#1E40AF" fill-opacity="0.78"/>
<circle cx="525.4" cy="323.4" r="3.2" fill="#2563EB" fill-opacity="0.78"/>
<circle cx="445.6" cy="145.2" r="3.2" fill="#60A5FA" fill-opacity="0.78"/>
<circle cx="422.6" cy="304.1" r="3.2" fill="#2563EB" fill-opacity="0.78"/>
<circle cx="288.4" cy="343.4" r="3.2" fill="#1E3A8A" fill-opacity="0.78"/>
<circle cx="547.3" cy="187.0" r="3.2" fill="#1E40AF" fill-opacity="0.78"/>
<circle cx="223.0" cy="257.2" r="3.2" fill="#0EA5E9" fill-opacity="0.78"/>
<circle cx="517.2" cy="305.9" r="3.2" fill="#2563EB" fill-opacity="0.78"/>
<circle cx="601.4" cy="270.5" r="3.2" fill="#3B82F6" fill-opacity="0.78"/>
<circle cx="273.2" cy="278.1" r="3.2" fill="#0EA5E9" fill-opacity="0.78"/>
<circle cx="403.8" cy="327.2" r="3.2" fill="#2563EB" fill-opacity="0.78"/>
<circle cx="411.4" cy="299.1" r="3.2" fill="#2563EB" fill-opacity="0.78"/>
<circle cx="314.6" cy="340.6" r="3.2" fill="#1E3A8A" fill-opacity="0.78"/>
<circle cx="409.9" cy="189.3" r="3.2" fill="#60A5FA" fill-opacity="0.78"/>
<circle cx="474.7" cy="299.7" r="3.2" fill="#2563EB" fill-opacity="0.78"/>
<circle cx="342.8" cy="179.5" r="3.2" fill="#1D4ED8" fill-opacity="0.78"/>
<circle cx="464.5" cy="104.1" r="3.2" fill="#94A3B8" fill-opacity="0.78"/>
<circle cx="499.5" cy="228.8" r="3.2" fill="#1E40AF" fill-opacity="0.78"/>
<circle cx="585.3" cy="259.4" r="3.2" fill="#3B82F6" fill-opacity="0.78"/>
<circle cx="238.2" cy="330.9" r="3.2" fill="#1E3A8A" fill-opacity="0.78"/>
<circle cx="606.7" cy="206.3" r="3.2" fill="#1E40AF" fill-opacity="0.78"/>
<circle cx="198.9" cy="283.9" r="3.2" fill="#0EA5E9" fill-opacity="0.78"/>
<circle cx="437.0" cy="137.4" r="3.2" fill="#60A5FA" fill-opacity="0.78"/>
<circle cx="305.8" cy="195.1" r="3.2" fill="#60A5FA" fill-opacity="0.78"/>
<circle cx="256.1" cy="318.2" r="3.2" fill="#1E3A8A" fill-opacity="0.78"/>
<circle cx="328.3" cy="111.4" r="3.2" fill="#60A5FA" fill-opacity="0.78"/>
<circle cx="246.2" cy="280.0" r="3.2" fill="#0EA5E9" fill-opacity="0.78"/>
<circle cx="464.6" cy="101.1" r="3.2" fill="#94A3B8" fill-opacity="0.78"/>
<circle cx="205.5" cy="283.5" r="3.2" fill="#0EA5E9" fill-opacity="0.78"/>
<circle cx="352.4" cy="123.1" r="3.2" fill="#60A5FA" fill-opacity="0.78"/>
<circle cx="429.1" cy="126.5" r="3.2" fill="#60A5FA" fill-opacity="0.78"/>
<circle cx="298.6" cy="298.9" r="3.2" fill="#0EA5E9" fill-opacity="0.78"/>
<circle cx="431.3" cy="179.3" r="3.2" fill="#60A5FA" fill-opacity="0.78"/>
<circle cx="332.8" cy="189.3" r="3.2" fill="#60A5FA" fill-opacity="0.78"/>
<circle cx="506.3" cy="275.8" r="3.2" fill="#2563EB" fill-opacity="0.78"/>
<circle cx="464.1" cy="293.1" r="3.2" fill="#2563EB" fill-opacity="0.78"/>
<circle cx="350.7" cy="165.5" r="3.2" fill="#1D4ED8" fill-opacity="0.78"/>
<circle cx="602.1" cy="247.3" r="3.2" fill="#1E40AF" fill-opacity="0.78"/>
<circle cx="456.0" cy="162.0" r="3.2" fill="#60A5FA" fill-opacity="0.78"/>
<circle cx="657.0" cy="216.1" r="3.2" fill="#3B82F6" fill-opacity="0.78"/>
<circle cx="673.8" cy="209.8" r="3.2" fill="#3B82F6" fill-opacity="0.78"/>
<circle cx="556.9" cy="216.7" r="3.2" fill="#1E40AF" fill-opacity="0.78"/>
<circle cx="513.9" cy="208.4" r="3.2" fill="#1E40AF" fill-opacity="0.78"/>
<circle cx="545.6" cy="215.2" r="3.2" fill="#1E40AF" fill-opacity="0.78"/>
<circle cx="470.6" cy="294.5" r="3.2" fill="#2563EB" fill-opacity="0.78"/>
<circle cx="565.1" cy="214.1" r="3.2" fill="#1E40AF" fill-opacity="0.78"/>
<circle cx="274.0" cy="309.6" r="3.2" fill="#1E3A8A" fill-opacity="0.78"/>
<circle cx="244.9" cy="216.8" r="3.2" fill="#1D4ED8" fill-opacity="0.78"/>
<circle cx="585.0" cy="282.0" r="3.2" fill="#3B82F6" fill-opacity="0.78"/>
<circle cx="397.4" cy="136.6" r="3.2" fill="#60A5FA" fill-opacity="0.78"/>
<circle cx="300.1" cy="232.6" r="3.2" fill="#1D4ED8" fill-opacity="0.78"/>
<circle cx="264.0" cy="326.4" r="3.2" fill="#1E3A8A" fill-opacity="0.78"/>
<circle cx="581.8" cy="196.5" r="3.2" fill="#1E40AF" fill-opacity="0.78"/>
<circle cx="318.9" cy="285.4" r="3.2" fill="#0EA5E9" fill-opacity="0.78"/>
<circle cx="472.7" cy="284.9" r="3.2" fill="#2563EB" fill-opacity="0.78"/>
<circle cx="489.8" cy="247.7" r="3.2" fill="#2563EB" fill-opacity="0.78"/>
<circle cx="158.2" cy="233.6" r="3.2" fill="#0EA5E9" fill-opacity="0.78"/>
<circle cx="475.6" cy="302.5" r="3.2" fill="#2563EB" fill-opacity="0.78"/>
<circle cx="371.3" cy="185.4" r="3.2" fill="#60A5FA" fill-opacity="0.78"/>
<circle cx="512.5" cy="312.0" r="3.2" fill="#2563EB" fill-opacity="0.78"/>
<circle cx="325.3" cy="243.1" r="3.2" fill="#1D4ED8" fill-opacity="0.78"/>
<circle cx="431.7" cy="255.9" r="3.2" fill="#2563EB" fill-opacity="0.78"/>
<circle cx="293.3" cy="334.4" r="3.2" fill="#1E3A8A" fill-opacity="0.78"/>
<circle cx="493.1" cy="284.7" r="3.2" fill="#2563EB" fill-opacity="0.78"/>
<circle cx="298.1" cy="348.1" r="3.2" fill="#1E3A8A" fill-opacity="0.78"/>
<circle cx="401.3" cy="211.3" r="3.2" fill="#1D4ED8" fill-opacity="0.78"/>
<circle cx="325.3" cy="217.0" r="3.2" fill="#1D4ED8" fill-opacity="0.78"/>
<circle cx="475.7" cy="109.9" r="3.2" fill="#94A3B8" fill-opacity="0.78"/>
<circle cx="595.5" cy="302.6" r="3.2" fill="#3B82F6" fill-opacity="0.78"/>
<circle cx="612.5" cy="256.5" r="3.2" fill="#3B82F6" fill-opacity="0.78"/>
<circle cx="386.1" cy="321.1" r="3.2" fill="#2563EB" fill-opacity="0.78"/>
<circle cx="335.7" cy="174.7" r="3.2" fill="#60A5FA" fill-opacity="0.78"/>
<circle cx="324.3" cy="234.4" r="3.2" fill="#1D4ED8" fill-opacity="0.78"/>
<circle cx="510.7" cy="132.1" r="3.2" fill="#94A3B8" fill-opacity="0.78"/>
<circle cx="560.8" cy="196.8" r="3.2" fill="#1E40AF" fill-opacity="0.78"/>
<circle cx="367.1" cy="202.5" r="3.2" fill="#1D4ED8" fill-opacity="0.78"/>
<circle cx="618.8" cy="214.6" r="3.2" fill="#1E40AF" fill-opacity="0.78"/>
<circle cx="320.2" cy="209.9" r="3.2" fill="#1D4ED8" fill-opacity="0.78"/>
<circle cx="496.0" cy="131.4" r="3.2" fill="#94A3B8" fill-opacity="0.78"/>
<circle cx="269.4" cy="357.5" r="3.2" fill="#1E3A8A" fill-opacity="0.78"/>
<circle cx="644.9" cy="218.7" r="3.2" fill="#3B82F6" fill-opacity="0.78"/>
<circle cx="317.0" cy="353.9" r="3.2" fill="#1E3A8A" fill-opacity="0.78"/>
<circle cx="350.9" cy="166.9" r="3.2" fill="#60A5FA" fill-opacity="0.78"/>
<circle cx="475.8" cy="139.4" r="3.2" fill="#94A3B8" fill-opacity="0.78"/>
<circle cx="164.1" cy="298.0" r="3.2" fill="#1E3A8A" fill-opacity="0.78"/>
<circle cx="670.4" cy="234.1" r="3.2" fill="#3B82F6" fill-opacity="0.78"/>
<circle cx="538.5" cy="219.1" r="3.2" fill="#1E40AF" fill-opacity="0.78"/>
<circle cx="472.1" cy="273.3" r="3.2" fill="#2563EB" fill-opacity="0.78"/>
<circle cx="509.9" cy="260.3" r="3.2" fill="#2563EB" fill-opacity="0.78"/>
<circle cx="476.7" cy="196.5" r="3.2" fill="#1E40AF" fill-opacity="0.78"/>
<circle cx="211.7" cy="326.5" r="3.2" fill="#1E3A8A" fill-opacity="0.78"/>
<circle cx="440.2" cy="118.5" r="3.2" fill="#60A5FA" fill-opacity="0.78"/>
<circle cx="384.3" cy="169.2" r="3.2" fill="#60A5FA" fill-opacity="0.78"/>
<circle cx="470.1" cy="312.8" r="3.2" fill="#2563EB" fill-opacity="0.78"/>
<circle cx="322.4" cy="313.0" r="3.2" fill="#1E3A8A" fill-opacity="0.78"/>
<circle cx="241.4" cy="275.3" r="3.2" fill="#0EA5E9" fill-opacity="0.78"/>
<circle cx="239.2" cy="352.1" r="3.2" fill="#1E3A8A" fill-opacity="0.78"/>
<circle cx="478.4" cy="86.5" r="3.2" fill="#94A3B8" fill-opacity="0.78"/>
<circle cx="484.1" cy="312.2" r="3.2" fill="#2563EB" fill-opacity="0.78"/>
<circle cx="591.0" cy="228.3" r="3.2" fill="#1E40AF" fill-opacity="0.78"/>
<circle cx="298.0" cy="314.8" r="3.2" fill="#1E3A8A" fill-opacity="0.78"/>
<circle cx="210.7" cy="245.2" r="3.2" fill="#0EA5E9" fill-opacity="0.78"/>
<circle cx="308.6" cy="176.0" r="3.2" fill="#1D4ED8" fill-opacity="0.78"/>
<circle cx="432.8" cy="190.9" r="3.2" fill="#1E40AF" fill-opacity="0.78"/>
<circle cx="526.9" cy="184.7" r="3.2" fill="#1E40AF" fill-opacity="0.78"/>
<circle cx="497.9" cy="226.5" r="3.2" fill="#1E40AF" fill-opacity="0.78"/>
<circle cx="418.2" cy="181.6" r="3.2" fill="#60A5FA" fill-opacity="0.78"/>
<circle cx="354.2" cy="205.5" r="3.2" fill="#1D4ED8" fill-opacity="0.78"/>
<circle cx="271.9" cy="318.8" r="3.2" fill="#1E3A8A" fill-opacity="0.78"/>
<circle cx="555.9" cy="172.8" r="3.2" fill="#1E40AF" fill-opacity="0.78"/>
<circle cx="407.1" cy="154.5" r="3.2" fill="#60A5FA" fill-opacity="0.78"/>
<circle cx="300.2" cy="222.9" r="3.2" fill="#1D4ED8" fill-opacity="0.78"/>
<circle cx="595.6" cy="164.8" r="3.2" fill="#1E40AF" fill-opacity="0.78"/>
<circle cx="443.1" cy="343.1" r="3.2" fill="#2563EB" fill-opacity="0.78"/>
<circle cx="164.3" cy="308.1" r="3.2" fill="#0EA5E9" fill-opacity="0.78"/>
<circle cx="255.2" cy="350.0" r="3.2" fill="#1E3A8A" fill-opacity="0.78"/>
<circle cx="496.2" cy="335.1" r="3.2" fill="#2563EB" fill-opacity="0.78"/>
<circle cx="267.9" cy="321.8" r="3.2" fill="#1E3A8A" fill-opacity="0.78"/>
<circle cx="371.3" cy="155.6" r="3.2" fill="#60A5FA" fill-opacity="0.78"/>
<circle cx="544.3" cy="148.7" r="3.2" fill="#94A3B8" fill-opacity="0.78"/>
<circle cx="425.3" cy="275.4" r="3.2" fill="#2563EB" fill-opacity="0.78"/>
<circle cx="562.2" cy="205.8" r="3.2" fill="#1E40AF" fill-opacity="0.78"/>
<circle cx="591.4" cy="237.0" r="3.2" fill="#3B82F6" fill-opacity="0.78"/>
<circle cx="330.2" cy="233.4" r="3.2" fill="#1D4ED8" fill-opacity="0.78"/>
<circle cx="374.7" cy="202.4" r="3.2" fill="#60A5FA" fill-opacity="0.78"/>
<circle cx="585.5" cy="232.9" r="3.2" fill="#1E40AF" fill-opacity="0.78"/>
<circle cx="605.6" cy="266.9" r="3.2" fill="#3B82F6" fill-opacity="0.78"/>
<circle cx="420.1" cy="251.6" r="3.2" fill="#2563EB" fill-opacity="0.78"/>
<circle cx="626.1" cy="260.8" r="3.2" fill="#3B82F6" fill-opacity="0.78"/>
<circle cx="481.5" cy="306.7" r="3.2" fill="#2563EB" fill-opacity="0.78"/>
<circle cx="581.5" cy="214.7" r="3.2" fill="#1E40AF" fill-opacity="0.78"/>
<circle cx="538.4" cy="212.6" r="3.2" fill="#1E40AF" fill-opacity="0.78"/>
<circle cx="215.6" cy="298.7" r="3.2" fill="#0EA5E9" fill-opacity="0.78"/>
<circle cx="436.5" cy="122.9" r="3.2" fill="#94A3B8" fill-opacity="0.78"/>
<circle cx="307.2" cy="197.3" r="3.2" fill="#1D4ED8" fill-opacity="0.78"/>
<circle cx="293.2" cy="344.1" r="3.2" fill="#1E3A8A" fill-opacity="0.78"/>
<circle cx="553.2" cy="218.9" r="3.2" fill="#3B82F6" fill-opacity="0.78"/>
<circle cx="606.6" cy="290.2" r="3.2" fill="#3B82F6" fill-opacity="0.78"/>
<circle cx="330.8" cy="196.3" r="3.2" fill="#1D4ED8" fill-opacity="0.78"/>
<circle cx="465.9" cy="261.2" r="3.2" fill="#2563EB" fill-opacity="0.78"/>
<circle cx="609.7" cy="212.4" r="3.2" fill="#1E40AF" fill-opacity="0.78"/>
<circle cx="438.4" cy="175.9" r="3.2" fill="#60A5FA" fill-opacity="0.78"/>
<circle cx="232.4" cy="351.3" r="3.2" fill="#1E3A8A" fill-opacity="0.78"/>
<circle cx="596.6" cy="232.1" r="3.2" fill="#1E40AF" fill-opacity="0.78"/>
<circle cx="644.9" cy="216.0" r="3.2" fill="#3B82F6" fill-opacity="0.78"/>
<circle cx="213.3" cy="294.6" r="3.2" fill="#0EA5E9" fill-opacity="0.78"/>
<circle cx="388.9" cy="234.9" r="3.2" fill="#2563EB" fill-opacity="0.78"/>
<circle cx="609.6" cy="199.0" r="3.2" fill="#1E40AF" fill-opacity="0.78"/>
<circle cx="249.9" cy="293.4" r="3.2" fill="#0EA5E9" fill-opacity="0.78"/>
<circle cx="531.1" cy="218.6" r="3.2" fill="#1E40AF" fill-opacity="0.78"/>
<circle cx="719.5" cy="254.0" r="3.2" fill="#3B82F6" fill-opacity="0.78"/>
<circle cx="476.2" cy="321.5" r="3.2" fill="#2563EB" fill-opacity="0.78"/>
<circle cx="225.0" cy="342.7" r="3.2" fill="#1E3A8A" fill-opacity="0.78"/>
<circle cx="620.6" cy="226.1" r="3.2" fill="#3B82F6" fill-opacity="0.78"/>
<circle cx="550.9" cy="194.2" r="3.2" fill="#1E40AF" fill-opacity="0.78"/>
<circle cx="345.0" cy="220.6" r="3.2" fill="#1D4ED8" fill-opacity="0.78"/>
<circle cx="656.9" cy="283.0" r="3.2" fill="#3B82F6" fill-opacity="0.78"/>
<circle cx="600.9" cy="243.3" r="3.2" fill="#3B82F6" fill-opacity="0.78"/>
<circle cx="506.0" cy="104.1" r="3.2" fill="#94A3B8" fill-opacity="0.78"/>
<circle cx="262.2" cy="359.2" r="3.2" fill="#1E3A8A" fill-opacity="0.78"/>
<circle cx="612.8" cy="203.6" r="3.2" fill="#3B82F6" fill-opacity="0.78"/>
<circle cx="566.6" cy="217.6" r="3.2" fill="#1E40AF" fill-opacity="0.78"/>
<circle cx="433.3" cy="125.1" r="3.2" fill="#60A5FA" fill-opacity="0.78"/>
<circle cx="585.0" cy="264.6" r="3.2" fill="#1E40AF" fill-opacity="0.78"/>
<circle cx="595.1" cy="183.6" r="3.2" fill="#1E40AF" fill-opacity="0.78"/>
<circle cx="246.0" cy="282.5" r="3.2" fill="#0EA5E9" fill-opacity="0.78"/>
<circle cx="392.3" cy="145.2" r="3.2" fill="#60A5FA" fill-opacity="0.78"/>
<circle cx="516.1" cy="193.0" r="3.2" fill="#1E40AF" fill-opacity="0.78"/>
<circle cx="598.5" cy="225.4" r="3.2" fill="#1E40AF" fill-opacity="0.78"/>
<circle cx="433.0" cy="128.7" r="3.2" fill="#60A5FA" fill-opacity="0.78"/>
<circle cx="330.6" cy="304.8" r="3.2" fill="#1E3A8A" fill-opacity="0.78"/>
<circle cx="544.0" cy="158.9" r="3.2" fill="#1E40AF" fill-opacity="0.78"/>
<circle cx="599.0" cy="323.8" r="3.2" fill="#3B82F6" fill-opacity="0.78"/>
<circle cx="682.6" cy="266.7" r="3.2" fill="#3B82F6" fill-opacity="0.78"/>
<circle cx="156.8" cy="286.9" r="3.2" fill="#0EA5E9" fill-opacity="0.78"/>
<circle cx="466.9" cy="286.1" r="3.2" fill="#2563EB" fill-opacity="0.78"/>
<circle cx="196.6" cy="318.2" r="3.2" fill="#1E3A8A" fill-opacity="0.78"/>
<circle cx="507.6" cy="255.0" r="3.2" fill="#1E40AF" fill-opacity="0.78"/>
<circle cx="422.5" cy="300.4" r="3.2" fill="#2563EB" fill-opacity="0.78"/>
<circle cx="538.2" cy="185.6" r="3.2" fill="#1E40AF" fill-opacity="0.78"/>
<circle cx="431.6" cy="177.7" r="3.2" fill="#60A5FA" fill-opacity="0.78"/>
<circle cx="545.1" cy="205.4" r="3.2" fill="#1E40AF" fill-opacity="0.78"/>
<circle cx="283.9" cy="200.8" r="3.2" fill="#1D4ED8" fill-opacity="0.78"/>
<circle cx="609.2" cy="218.7" r="3.2" fill="#3B82F6" fill-opacity="0.78"/>
<circle cx="446.8" cy="290.4" r="3.2" fill="#2563EB" fill-opacity="0.78"/>
<circle cx="232.8" cy="278.8" r="3.2" fill="#0EA5E9" fill-opacity="0.78"/>
<circle cx="209.1" cy="258.0" r="3.2" fill="#0EA5E9" fill-opacity="0.78"/>
<circle cx="514.0" cy="198.4" r="3.2" fill="#1E40AF" fill-opacity="0.78"/>
<circle cx="481.1" cy="106.7" r="3.2" fill="#60A5FA" fill-opacity="0.78"/>
<circle cx="269.4" cy="266.2" r="3.2" fill="#0EA5E9" fill-opacity="0.78"/>
<circle cx="289.7" cy="346.2" r="3.2" fill="#1E3A8A" fill-opacity="0.78"/>
<circle cx="494.3" cy="142.9" r="3.2" fill="#94A3B8" fill-opacity="0.78"/>
<circle cx="236.8" cy="375.5" r="3.2" fill="#1E3A8A" fill-opacity="0.78"/>
<circle cx="394.5" cy="140.6" r="3.2" fill="#60A5FA" fill-opacity="0.78"/>
<circle cx="221.7" cy="230.3" r="3.2" fill="#0EA5E9" fill-opacity="0.78"/>
<circle cx="613.0" cy="266.4" r="3.2" fill="#3B82F6" fill-opacity="0.78"/>
<circle cx="658.3" cy="253.3" r="3.2" fill="#3B82F6" fill-opacity="0.78"/>
<circle cx="652.3" cy="244.8" r="3.2" fill="#3B82F6" fill-opacity="0.78"/>
<circle cx="635.4" cy="217.2" r="3.2" fill="#3B82F6" fill-opacity="0.78"/>
<circle cx="511.7" cy="198.5" r="3.2" fill="#1E40AF" fill-opacity="0.78"/>
<circle cx="489.8" cy="353.2" r="3.2" fill="#2563EB" fill-opacity="0.78"/>
<circle cx="433.8" cy="124.2" r="3.2" fill="#60A5FA" fill-opacity="0.78"/>
<circle cx="413.6" cy="129.8" r="3.2" fill="#60A5FA" fill-opacity="0.78"/>
<circle cx="512.0" cy="284.1" r="3.2" fill="#2563EB" fill-opacity="0.78"/>
<circle cx="288.7" cy="339.8" r="3.2" fill="#1E3A8A" fill-opacity="0.78"/>
<circle cx="259.1" cy="300.8" r="3.2" fill="#0EA5E9" fill-opacity="0.78"/>
<circle cx="430.4" cy="170.9" r="3.2" fill="#60A5FA" fill-opacity="0.78"/>
<circle cx="525.0" cy="199.3" r="3.2" fill="#1E40AF" fill-opacity="0.78"/>
<circle cx="480.7" cy="122.2" r="3.2" fill="#94A3B8" fill-opacity="0.78"/>
<circle cx="517.0" cy="220.5" r="3.2" fill="#1E40AF" fill-opacity="0.78"/>
<circle cx="345.8" cy="162.5" r="3.2" fill="#60A5FA" fill-opacity="0.78"/>
<circle cx="480.0" cy="116.1" r="3.2" fill="#94A3B8" fill-opacity="0.78"/>
<circle cx="559.6" cy="184.3" r="3.2" fill="#1E40AF" fill-opacity="0.78"/>
<circle cx="268.7" cy="202.0" r="3.2" fill="#1D4ED8" fill-opacity="0.78"/>
<circle cx="394.8" cy="314.3" r="3.2" fill="#2563EB" fill-opacity="0.78"/>
<circle cx="379.2" cy="185.4" r="3.2" fill="#60A5FA" fill-opacity="0.78"/>
<circle cx="521.0" cy="258.6" r="3.2" fill="#3B82F6" fill-opacity="0.78"/>
<circle cx="434.1" cy="308.3" r="3.2" fill="#2563EB" fill-opacity="0.78"/>
<circle cx="309.9" cy="176.5" r="3.2" fill="#1D4ED8" fill-opacity="0.78"/>
<circle cx="452.3" cy="136.5" r="3.2" fill="#94A3B8" fill-opacity="0.78"/>
<circle cx="514.4" cy="87.8" r="3.2" fill="#94A3B8" fill-opacity="0.78"/>
<circle cx="403.6" cy="170.9" r="3.2" fill="#60A5FA" fill-opacity="0.78"/>
<circle cx="556.3" cy="200.9" r="3.2" fill="#1E40AF" fill-opacity="0.78"/>
<circle cx="264.3" cy="250.5" r="3.2" fill="#0EA5E9" fill-opacity="0.78"/>
<circle cx="638.5" cy="282.6" r="3.2" fill="#3B82F6" fill-opacity="0.78"/>
<circle cx="600.5" cy="216.2" r="3.2" fill="#1E40AF" fill-opacity="0.78"/>
<circle cx="571.1" cy="204.0" r="3.2" fill="#1E40AF" fill-opacity="0.78"/>
<circle cx="426.1" cy="130.3" r="3.2" fill="#94A3B8" fill-opacity="0.78"/>
<circle cx="381.9" cy="137.5" r="3.2" fill="#60A5FA" fill-opacity="0.78"/>
<circle cx="226.5" cy="324.7" r="3.2" fill="#1E3A8A" fill-opacity="0.78"/>
<circle cx="575.5" cy="230.0" r="3.2" fill="#1E40AF" fill-opacity="0.78"/>
<circle cx="625.6" cy="201.5" r="3.2" fill="#1E40AF" fill-opacity="0.78"/>
<circle cx="296.6" cy="140.5" r="3.2" fill="#60A5FA" fill-opacity="0.78"/>
<circle cx="451.4" cy="132.4" r="3.2" fill="#60A5FA" fill-opacity="0.78"/>
<circle cx="305.7" cy="346.2" r="3.2" fill="#1E3A8A" fill-opacity="0.78"/>
<circle cx="413.5" cy="146.7" r="3.2" fill="#60A5FA" fill-opacity="0.78"/>
<circle cx="484.3" cy="308.4" r="3.2" fill="#2563EB" fill-opacity="0.78"/>
<circle cx="438.0" cy="185.6" r="3.2" fill="#60A5FA" fill-opacity="0.78"/>
<circle cx="549.1" cy="212.7" r="3.2" fill="#1E40AF" fill-opacity="0.78"/>
<circle cx="455.0" cy="121.3" r="3.2" fill="#60A5FA" fill-opacity="0.78"/>
<circle cx="427.9" cy="303.2" r="3.2" fill="#2563EB" fill-opacity="0.78"/>
<circle cx="300.7" cy="334.0" r="3.2" fill="#1E3A8A" fill-opacity="0.78"/>
<circle cx="297.2" cy="229.1" r="3.2" fill="#1D4ED8" fill-opacity="0.78"/>
<circle cx="568.2" cy="215.0" r="3.2" fill="#1E40AF" fill-opacity="0.78"/>
<circle cx="480.3" cy="230.9" r="3.2" fill="#1E40AF" fill-opacity="0.78"/>
<circle cx="247.2" cy="307.4" r="3.2" fill="#1E3A8A" fill-opacity="0.78"/>
<circle cx="654.6" cy="233.3" r="3.2" fill="#3B82F6" fill-opacity="0.78"/>
<circle cx="660.6" cy="233.4" r="3.2" fill="#3B82F6" fill-opacity="0.78"/>
<circle cx="573.8" cy="255.3" r="3.2" fill="#1E40AF" fill-opacity="0.78"/>
<circle cx="523.0" cy="185.1" r="3.2" fill="#1E40AF" fill-opacity="0.78"/>
<circle cx="433.9" cy="169.2" r="3.2" fill="#60A5FA" fill-opacity="0.78"/>
<circle cx="583.6" cy="187.5" r="3.2" fill="#1E40AF" fill-opacity="0.78"/>
<circle cx="540.9" cy="305.1" r="3.2" fill="#2563EB" fill-opacity="0.78"/>
<circle cx="289.4" cy="197.2" r="3.2" fill="#1D4ED8" fill-opacity="0.78"/>
<circle cx="569.6" cy="266.7" r="3.2" fill="#3B82F6" fill-opacity="0.78"/>
<circle cx="322.4" cy="238.4" r="3.2" fill="#1D4ED8" fill-opacity="0.78"/>
<circle cx="442.5" cy="287.6" r="3.2" fill="#2563EB" fill-opacity="0.78"/>
<circle cx="457.5" cy="147.2" r="3.2" fill="#60A5FA" fill-opacity="0.78"/>
<circle cx="565.1" cy="199.4" r="3.2" fill="#1E40AF" fill-opacity="0.78"/>
<rect x="512.9" y="184.5" width="69.8" height="18" rx="9" fill="white" fill-opacity="0.92" stroke="#1E40AF" stroke-width="1"/>
<text x="547.8" y="197.5" font-family="Inter" font-size="10.5" font-weight="600" fill="#1E40AF" text-anchor="middle">LLM-Agent</text>
<rect x="424.5" y="272.6" width="63.6" height="18" rx="9" fill="white" fill-opacity="0.92" stroke="#2563EB" stroke-width="1"/>
<text x="456.3" y="285.6" font-family="Inter" font-size="10.5" font-weight="600" fill="#2563EB" text-anchor="middle">Tool-Use</text>
<rect x="567.7" y="237.4" width="82.2" height="18" rx="9" fill="white" fill-opacity="0.92" stroke="#3B82F6" stroke-width="1"/>
<text x="608.8" y="250.4" font-family="Inter" font-size="10.5" font-weight="600" fill="#3B82F6" text-anchor="middle">Multi-Agent</text>
<rect x="290.3" y="191.6" width="63.6" height="18" rx="9" fill="white" fill-opacity="0.92" stroke="#1D4ED8" stroke-width="1"/>
<text x="322.1" y="204.6" font-family="Inter" font-size="10.5" font-weight="600" fill="#1D4ED8" text-anchor="middle">Planning</text>
<rect x="369.7" y="131.7" width="51.2" height="18" rx="9" fill="white" fill-opacity="0.92" stroke="#60A5FA" stroke-width="1"/>
<text x="395.3" y="144.7" font-family="Inter" font-size="10.5" font-weight="600" fill="#60A5FA" text-anchor="middle">Dialog</text>
<rect x="186.5" y="255.0" width="76.0" height="18" rx="9" fill="white" fill-opacity="0.92" stroke="#0EA5E9" stroke-width="1"/>
<text x="224.5" y="268.0" font-family="Inter" font-size="10.5" font-weight="600" fill="#0EA5E9" text-anchor="middle">Perception</text>
<rect x="241.5" y="307.8" width="63.6" height="18" rx="9" fill="white" fill-opacity="0.92" stroke="#1E3A8A" stroke-width="1"/>
<text x="273.3" y="320.8" font-family="Inter" font-size="10.5" font-weight="600" fill="#1E3A8A" text-anchor="middle">Robotics</text>
<rect x="464.3" y="96.4" width="45.0" height="18" rx="9" fill="white" fill-opacity="0.92" stroke="#94A3B8" stroke-width="1"/>
<text x="486.8" y="109.4" font-family="Inter" font-size="10.5" font-weight="600" fill="#94A3B8" text-anchor="middle">Other</text>
<text x="80" y="36" font-family="Inter, Noto Sans KR" font-size="18" font-weight="700" fill="#0F172A">AI Agent Patent Map</text>
<text x="80" y="55" font-family="Inter, Noto Sans KR" font-size="11.5" fill="#475569">UMAP 2D embedding · 3,420 KIPRIS patents · 8 technology clusters</text>
<g transform="translate(760, 420)">
<rect x="-86" y="-14" width="80" height="22" rx="11" fill="#1E40AF"/>
<text x="-46" y="1" font-family="Inter" font-size="10" font-weight="700" fill="#FFFFFF" text-anchor="middle">AI DELPHI</text>
</g>
</svg>