<svg xmlns="http://www.w3.org/2000/svg" viewBox="0 0 800 450" preserveAspectRatio="xMidYMid slice" role="img" aria-label="Investor-Startup network graph">
<defs>
  <linearGradient id="bg" x1="0" y1="0" x2="1" y2="1">
    <stop offset="0%" stop-color="#F8FAFC"/>
    <stop offset="100%" stop-color="#DCE8FB"/>
  </linearGradient>
  <radialGradient id="glow" cx="52%" cy="48%" r="55%">
    <stop offset="0%" stop-color="#60A5FA" stop-opacity="0.22"/>
    <stop offset="100%" stop-color="#60A5FA" stop-opacity="0"/>
  </radialGradient>
</defs>
<rect width="800" height="450" fill="url(#bg)"/>
<rect width="800" height="450" fill="url(#glow)"/>
<g stroke="#1E40AF" stroke-opacity="0.22" stroke-width="1" fill="none">
<line x1="416.0" y1="216.0" x2="576.0" y2="247.5"/>
<line x1="416.0" y1="216.0" x2="598.9" y2="351.7"/>
<line x1="416.0" y1="216.0" x2="203.6" y2="120.4"/>
<line x1="416.0" y1="216.0" x2="359.6" y2="46.1"/>
<line x1="416.0" y1="216.0" x2="430.7" y2="48.7"/>
<line x1="416.0" y1="216.0" x2="530.0" y2="73.6"/>
<line x1="416.0" y1="216.0" x2="628.7" y2="117.0"/>
<line x1="224.0" y1="144.0" x2="320.0" y2="90.0"/>
<line x1="224.0" y1="144.0" x2="185.1" y2="272.6"/>
<line x1="576.0" y1="247.5" x2="496.0" y2="99.0"/>
<line x1="576.0" y1="247.5" x2="656.0" y2="157.5"/>
<line x1="576.0" y1="247.5" x2="680.0" y2="324.0"/>
<line x1="576.0" y1="247.5" x2="625.5" y2="291.9"/>
<line x1="576.0" y1="247.5" x2="598.9" y2="351.7"/>
<line x1="576.0" y1="247.5" x2="530.5" y2="371.2"/>
<line x1="576.0" y1="247.5" x2="530.0" y2="73.6"/>
<line x1="576.0" y1="247.5" x2="694.7" y2="201.6"/>
<line x1="320.0" y1="90.0" x2="203.6" y2="120.4"/>
<line x1="656.0" y1="157.5" x2="625.5" y2="291.9"/>
<line x1="680.0" y1="324.0" x2="694.7" y2="201.6"/>
<line x1="440.0" y1="360.0" x2="401.4" y2="378.9"/>
<line x1="440.0" y1="360.0" x2="361.3" y2="391.7"/>
<line x1="144.0" y1="270.0" x2="158.9" y2="231.2"/>
</g>
<g>
<circle cx="416.0" cy="216.0" r="23.5" fill="white" stroke="#1E40AF" stroke-opacity="0.2" stroke-width="1"/>
<circle cx="416.0" cy="216.0" r="22.0" fill="#1E40AF" fill-opacity="0.92"/>
<circle cx="224.0" cy="144.0" r="18.5" fill="white" stroke="#1E40AF" stroke-opacity="0.2" stroke-width="1"/>
<circle cx="224.0" cy="144.0" r="17.0" fill="#1E40AF" fill-opacity="0.92"/>
<circle cx="576.0" cy="247.5" r="17.5" fill="white" stroke="#1E40AF" stroke-opacity="0.2" stroke-width="1"/>
<circle cx="576.0" cy="247.5" r="16.0" fill="#1E40AF" fill-opacity="0.92"/>
<circle cx="320.0" cy="90.0" r="12.5" fill="white" stroke="#3B82F6" stroke-opacity="0.2" stroke-width="1"/>
<circle cx="320.0" cy="90.0" r="11.0" fill="#3B82F6" fill-opacity="0.92"/>
<circle cx="496.0" cy="99.0" r="12.0" fill="white" stroke="#3B82F6" stroke-opacity="0.2" stroke-width="1"/>
<circle cx="496.0" cy="99.0" r="10.5" fill="#3B82F6" fill-opacity="0.92"/>
<circle cx="656.0" cy="157.5" r="13.5" fill="white" stroke="#3B82F6" stroke-opacity="0.2" stroke-width="1"/>
<circle cx="656.0" cy="157.5" r="12.0" fill="#3B82F6" fill-opacity="0.92"/>
<circle cx="680.0" cy="324.0" r="11.7" fill="white" stroke="#3B82F6" stroke-opacity="0.2" stroke-width="1"/>
<circle cx="680.0" cy="324.0" r="10.2" fill="#3B82F6" fill-opacity="0.92"/>
<circle cx="440.0" cy="360.0" r="13.1" fill="white" stroke="#3B82F6" stroke-opacity="0.2" stroke-width="1"/>
<circle cx="440.0" cy="360.0" r="11.6" fill="#3B82F6" fill-opacity="0.92"/>
<circle cx="144.0" cy="270.0" r="12.6" fill="white" stroke="#3B82F6" stroke-opacity="0.2" stroke-width="1"/>
<circle cx="144.0" cy="270.0" r="11.1" fill="#3B82F6" fill-opacity="0.92"/>
<circle cx="681.5" cy="219.9" r="5.6" fill="white" stroke="#60A5FA" stroke-opacity="0.2" stroke-width="1"/>
<circle cx="681.5" cy="219.9" r="4.1" fill="#60A5FA" fill-opacity="0.92"/>
<circle cx="625.5" cy="291.9" r="5.7" fill="white" stroke="#60A5FA" stroke-opacity="0.2" stroke-width="1"/>
<circle cx="625.5" cy="291.9" r="4.2" fill="#60A5FA" fill-opacity="0.92"/>
<circle cx="598.9" cy="351.7" r="5.8" fill="white" stroke="#60A5FA" stroke-opacity="0.2" stroke-width="1"/>
<circle cx="598.9" cy="351.7" r="4.3" fill="#60A5FA" fill-opacity="0.92"/>
<circle cx="530.5" cy="371.2" r="7.9" fill="white" stroke="#60A5FA" stroke-opacity="0.2" stroke-width="1"/>
<circle cx="530.5" cy="371.2" r="6.4" fill="#60A5FA" fill-opacity="0.92"/>
<circle cx="401.4" cy="378.9" r="7.9" fill="white" stroke="#60A5FA" stroke-opacity="0.2" stroke-width="1"/>
<circle cx="401.4" cy="378.9" r="6.4" fill="#60A5FA" fill-opacity="0.92"/>
<circle cx="361.3" cy="391.7" r="6.2" fill="white" stroke="#60A5FA" stroke-opacity="0.2" stroke-width="1"/>
<circle cx="361.3" cy="391.7" r="4.7" fill="#60A5FA" fill-opacity="0.92"/>
<circle cx="281.8" cy="344.4" r="6.3" fill="white" stroke="#60A5FA" stroke-opacity="0.2" stroke-width="1"/>
<circle cx="281.8" cy="344.4" r="4.8" fill="#60A5FA" fill-opacity="0.92"/>
<circle cx="185.1" cy="272.6" r="7.0" fill="white" stroke="#60A5FA" stroke-opacity="0.2" stroke-width="1"/>
<circle cx="185.1" cy="272.6" r="5.5" fill="#60A5FA" fill-opacity="0.92"/>
<circle cx="158.9" cy="231.2" r="6.9" fill="white" stroke="#60A5FA" stroke-opacity="0.2" stroke-width="1"/>
<circle cx="158.9" cy="231.2" r="5.4" fill="#60A5FA" fill-opacity="0.92"/>
<circle cx="174.8" cy="212.2" r="6.0" fill="white" stroke="#60A5FA" stroke-opacity="0.2" stroke-width="1"/>
<circle cx="174.8" cy="212.2" r="4.5" fill="#60A5FA" fill-opacity="0.92"/>
<circle cx="203.6" cy="120.4" r="6.3" fill="white" stroke="#60A5FA" stroke-opacity="0.2" stroke-width="1"/>
<circle cx="203.6" cy="120.4" r="4.8" fill="#60A5FA" fill-opacity="0.92"/>
<circle cx="259.5" cy="83.4" r="6.2" fill="white" stroke="#60A5FA" stroke-opacity="0.2" stroke-width="1"/>
<circle cx="259.5" cy="83.4" r="4.7" fill="#60A5FA" fill-opacity="0.92"/>
<circle cx="359.6" cy="46.1" r="6.1" fill="white" stroke="#60A5FA" stroke-opacity="0.2" stroke-width="1"/>
<circle cx="359.6" cy="46.1" r="4.6" fill="#60A5FA" fill-opacity="0.92"/>
<circle cx="430.7" cy="48.7" r="7.7" fill="white" stroke="#60A5FA" stroke-opacity="0.2" stroke-width="1"/>
<circle cx="430.7" cy="48.7" r="6.2" fill="#60A5FA" fill-opacity="0.92"/>
<circle cx="530.0" cy="73.6" r="8.0" fill="white" stroke="#60A5FA" stroke-opacity="0.2" stroke-width="1"/>
<circle cx="530.0" cy="73.6" r="6.5" fill="#60A5FA" fill-opacity="0.92"/>
<circle cx="556.9" cy="78.1" r="7.4" fill="white" stroke="#60A5FA" stroke-opacity="0.2" stroke-width="1"/>
<circle cx="556.9" cy="78.1" r="5.9" fill="#60A5FA" fill-opacity="0.92"/>
<circle cx="628.7" cy="117.0" r="5.6" fill="white" stroke="#60A5FA" stroke-opacity="0.2" stroke-width="1"/>
<circle cx="628.7" cy="117.0" r="4.1" fill="#60A5FA" fill-opacity="0.92"/>
<circle cx="694.7" cy="201.6" r="6.9" fill="white" stroke="#60A5FA" stroke-opacity="0.2" stroke-width="1"/>
<circle cx="694.7" cy="201.6" r="5.4" fill="#60A5FA" fill-opacity="0.92"/>
</g>
<g font-family="'Inter', 'Noto Sans KR', sans-serif" fill="#0F172A">
  <text x="36" y="56" font-size="20" font-weight="700" letter-spacing="-0.01em">Investor–Startup Network</text>
  <text x="36" y="80" font-size="13" font-weight="500" fill="#475569">Bipartite force-directed · Korean AI ecosystem</text>
</g>
</svg>